# xmcd
#
# Track frame offsets: 
#        150
#        5495
#        19882
#        33087
#        48260
#        64887
#        79215
#        95645
#        112787
#        129010
#        144090
#        163050
#        184490
#        198612
#        216592
#        232087
#
# Disc length: 3318 seconds
#
# Revision: 2
# Processed by: cddbd v1.5.2PL0 Copyright (c) Steve Scherf et al.
# Submitted via: ExactAudioCopy v1.0b3
#
DISCID=dc0cf410
DTITLE=Amerie - Because I Love It
DYEAR=2007
DGENRE=Soul
TTITLE0=Forecast (intro)
TTITLE1=Hate 2 Love U
TTITLE2=Some Like It
TTITLE3=Make Me Believe
TTITLE4=Take Control
TTITLE5=Gotta Work
TTITLE6=Crush
TTITLE7=Crazy Wanderful
TTITLE8=That's What U R
TTITLE9=When Loving U Was Easy
TTITLE10=Paint Me Over
TTITLE11=Somebody Up There
TTITLE12=All Roads
TTITLE13=1 Thing
TTITLE14=Losing U
TTITLE15=Take Control (feat.Se7en)
EXTD=
EXTT0=
EXTT1=
EXTT2=
EXTT3=
EXTT4=
EXTT5=
EXTT6=
EXTT7=
EXTT8=
EXTT9=
EXTT10=
EXTT11=
EXTT12=
EXTT13=
EXTT14=
EXTT15=
PLAYORDER=
